PathFileType	4	(X/Y/Z)	D:\TRACE\v60_Jaco2_6-2-23\BothDRS_Motion3_6-v60.trc
DataRate	CameraRate	NumFrames	NumMarkers	Units	OrigDataRate	OrigDataStartFrame	OrigNumFrames
100.00	100.00	      28	9	mm	100.00	1	      7000
Frame#	Time	front left toe			Front right toe			aft left toe			aft right toe			Arm			FL body			FR body			AL Body			AR Body			
		X1	Y1	Z1	X2	Y2	Z2	X3	Y3	Z3	X4	Y4	Z4	X5	Y5	Z5	X6	Y6	Z6	X7	Y7	Z7	X8	Y8	Z8	X9	Y9	Z9	

1	0.000	-223.35625	85.45074	-317.86139	225.65738	92.20503	-365.27762	-120.10809	-22.67325	270.81046	265.93109	-23.49234	267.86307	25.51459	1263.98853	-273.27518	-83.80706	659.84613	-477.14636	75.63240	659.15100	-493.45184	19.84059	496.52853	447.21640	170.55490	487.20450	429.47849	
2	0.010	-223.37015	85.46605	-317.87442	225.74466	92.27940	-365.15680	-120.09887	-22.67631	270.85748	265.93112	-23.49329	267.86490	25.60438	1263.95227	-273.24301	-83.82922	659.87146	-477.14767	75.63509	659.10260	-493.38843	19.80728	496.53244	447.19543	170.57944	487.19632	429.46811	
3	0.020	-223.36783	85.46488	-317.88635	225.70192	92.26065	-365.21072	-120.35793	-22.81667	271.28241	265.92941	-23.48463	267.87851	25.57780	1263.99316	-273.27786	-83.82357	659.86353	-477.13806	75.64790	659.11481	-493.46533	19.83893	496.52878	447.19394	170.57655	487.20358	429.48654	
4	0.030	-223.38170	85.46073	-317.84546	225.51448	92.20834	-365.32553	-120.13882	-22.67814	270.81265	265.88956	-23.49521	267.83136	25.52359	1263.97180	-273.28003	-83.79592	659.83441	-477.09805	75.64443	659.08795	-493.41492	19.81867	496.53439	447.24686	170.58401	487.22089	429.45779	
5	0.040	-223.35973	85.46346	-317.85367	225.51749	92.23344	-365.31305	-120.16829	-22.64680	270.84384	265.92374	-23.49471	267.86761	25.69601	1263.94727	-273.22519	-83.83090	659.85455	-477.13022	75.64084	659.09845	-493.40891	19.76322	496.51303	447.19583	170.53976	487.19336	429.47913	
6	0.050	-223.37912	85.50954	-317.87421	225.50853	92.22814	-365.32996	-120.15063	-22.63294	270.87228	265.87842	-23.50240	267.82913	25.61480	1263.96179	-273.26904	-83.82662	659.85602	-477.14417	75.59155	659.12939	-493.42706	19.82105	496.57220	447.23273	170.55498	487.19644	429.47778	
7	0.060	-223.38583	85.51399	-317.88623	225.51291	92.21441	-365.33203	-120.13377	-22.64280	270.80859	265.92657	-23.48186	267.84415	25.98744	1263.87500	-273.10782	-83.80821	659.83075	-477.11270	75.56918	659.11255	-493.44598	19.80607	496.58505	447.21384	170.56425	487.21979	429.47806	
8	0.070	-223.38065	85.49718	-317.89914	225.57170	92.21800	-365.30408	-120.14944	-22.64674	270.81845	265.90259	-23.50534	267.85611	25.69050	1263.94617	-273.23755	-83.77984	659.85101	-477.14157	75.62502	659.08942	-493.39514	19.81901	496.60178	447.21237	170.56445	487.21021	429.48114	
9	0.080	-223.38161	85.45675	-317.86349	225.61427	92.19872	-365.30670	-120.16196	-22.64692	270.83759	265.90405	-23.49116	267.83997	25.65859	1263.95874	-273.24905	-83.78848	659.84259	-477.12802	75.58520	659.12128	-493.42307	19.76178	496.52029	447.24622	170.56062	487.19824	429.48566	
10	0.090	-223.39438	85.46319	-317.84863	225.37544	92.20039	-365.38885	-120.16805	-22.65277	270.83109	265.93454	-23.51067	267.91605	25.60782	1263.93823	-273.32391	-83.80025	659.85913	-477.13467	75.59627	659.10590	-493.43619	19.82804	496.51859	447.18851	170.57526	487.18710	429.48822	
11	0.100	-223.36015	85.45783	-317.87418	225.55623	92.21951	-365.34387	-120.09023	-22.67328	270.83331	265.92499	-23.49585	267.85318	25.58822	1263.98718	-273.22675	-83.77040	659.82123	-477.11032	75.55369	659.13086	-493.44931	19.86371	496.55734	447.24911	170.56094	487.20685	429.49298	
12	0.110	-223.39130	85.49723	-317.86359	225.44928	92.23999	-365.33640	-120.10436	-22.66888	270.83228	265.90897	-23.53226	267.86469	25.53551	1263.93542	-273.33655	-83.78867	659.87140	-477.14056	75.62445	659.13562	-493.43304	19.84466	496.54434	447.20480	170.56151	487.17969	429.46097	
13	0.120	-223.36913	85.48352	-317.88055	225.81476	92.24957	-365.19095	-120.18195	-22.62221	270.83829	265.90878	-23.50512	267.85898	25.59206	1263.98657	-273.26801	-83.81338	659.85974	-477.13412	75.58924	659.13293	-493.45053	19.82161	496.53687	447.18289	170.58046	487.19992	429.46771	
14	0.130	-223.34529	85.46223	-317.87305	225.54976	92.22972	-365.30273	-120.13596	-22.67458	270.82675	265.89294	-23.51365	267.84796	25.68750	1263.95947	-273.25009	-83.79153	659.86884	-477.13425	75.54819	659.14508	-493.46271	19.79518	496.55841	447.24115	170.56581	487.20441	429.49570	
15	0.140	-223.35664	85.44778	-317.84543	225.59781	92.27494	-365.23288	-120.19212	-22.62649	270.83789	265.88242	-23.53667	267.87811	25.68496	1263.92676	-273.25089	-83.76374	659.80988	-477.13654	75.68739	659.08618	-493.39902	19.83905	496.53937	447.21793	170.57263	487.21051	429.47211	
16	0.150	-223.36523	85.43987	-317.86984	225.54236	92.24027	-365.30194	-120.21011	-22.64881	270.83530	265.91269	-23.52615	267.88577	25.83521	1263.86523	-273.24261	-83.79923	659.87103	-477.15472	75.57494	659.11737	-493.44534	19.82978	496.49149	447.22006	170.56279	487.19293	429.46924	
17	0.160	-223.34026	85.46944	-317.86551	225.76534	92.27264	-365.20673	-120.11569	-22.68285	270.85480	265.92847	-23.52206	267.91028	25.68107	1263.95630	-273.23358	-83.76413	659.85419	-477.12814	75.61729	659.10120	-493.43478	19.95328	496.56244	447.24341	170.57755	487.20313	429.48196	
18	0.170	-223.37886	85.46449	-317.88611	225.58946	92.25123	-365.27557	-120.06614	-22.65484	270.81268	265.92255	-23.48985	267.87445	25.61178	1263.99487	-273.25034	-83.76377	659.84552	-477.12561	75.62639	659.11230	-493.42822	19.83558	496.57736	447.21704	170.57616	487.21793	429.48602	
19	0.180	-223.35742	85.47215	-317.86038	225.51534	92.19186	-365.34409	-120.12688	-22.69396	270.83133	265.90564	-23.49107	267.85443	25.57184	1263.97388	-273.32178	-83.76050	659.84259	-477.11139	75.59160	659.11499	-493.44006	19.86194	496.57739	447.21091	170.56190	487.19196	429.49323	
20	0.190	-223.36752	85.47132	-317.88647	225.60458	92.23419	-365.27426	-120.17291	-22.64134	270.85934	265.91678	-23.50887	267.87149	25.55095	1263.96387	-273.31165	-83.79488	659.84747	-477.15533	75.61147	659.12427	-493.43182	19.86442	496.52933	447.22787	170.57147	487.20889	429.48853	
21	0.200	-223.36993	85.48254	-317.86465	225.69188	92.28474	-365.24942	-120.17652	-22.65432	270.85208	265.89209	-23.50844	267.89859	25.98281	1263.85034	-273.11017	-83.71671	659.70734	-477.22458	75.67123	659.12256	-493.41663	19.84813	496.51260	447.23239	170.57687	487.18637	429.50003	
22	0.210	-223.36826	85.46565	-317.87152	225.68401	92.25655	-365.27646	-120.12701	-22.65636	270.84891	265.89777	-23.49046	267.83710	26.00272	1263.85437	-273.12091	-83.76842	659.85620	-477.11633	75.69401	659.11102	-493.42386	19.86732	496.52759	447.22211	170.57132	487.19052	429.48138	
23	0.220	-223.35052	85.50097	-317.86737	225.60486	92.20695	-365.30432	-120.10024	-22.65406	270.83582	265.90527	-23.46375	267.83417	25.63053	1263.96545	-273.25409	-83.67992	659.73041	-477.18246	75.67175	659.13635	-493.45752	19.80784	496.54156	447.25876	170.55498	487.17566	429.50018	
24	0.230	-223.35297	85.45811	-317.87222	225.58600	92.24109	-365.26794	-120.13067	-22.68598	270.81650	265.91748	-23.49765	267.89084	25.65389	1263.96814	-273.29221	-83.76808	659.88269	-477.13153	75.61829	659.12933	-493.44836	19.82388	496.52371	447.24890	170.52443	487.21494	429.49704	
25	0.240	-223.35199	85.46243	-317.86539	225.53502	92.20838	-365.35449	-120.10327	-22.65797	270.81171	265.92749	-23.49238	267.86447	25.68158	1263.95618	-273.26425	-83.79243	659.84857	-477.12149	75.64129	659.11334	-493.46548	19.77902	496.53329	447.24652	170.60233	487.21188	429.48422	
26	0.250	-223.35719	85.46839	-317.86240	225.47792	92.20029	-365.35443	-120.14772	-22.68080	270.86725	265.93842	-23.50722	267.89130	25.67584	1263.94946	-273.28177	-83.75269	659.83203	-477.11008	75.66105	659.10669	-493.43762	19.82651	496.55365	447.23465	170.56285	487.19421	429.49170	
27	0.260	-223.36649	85.44672	-317.86053	225.59821	92.22758	-365.31268	-120.12648	-22.71081	270.84583	265.92380	-23.51196	267.89200	25.67284	1264.00476	-273.24503	-83.79272	659.84937	-477.06256	75.58109	659.11273	-493.42700	19.92747	496.50809	447.26367	170.57079	487.20499	429.46503	
28	0.270	-223.35312	85.45184	-317.88248	225.59853	92.24133	-365.25943	-120.11487	-22.67892	270.84491	265.92099	-23.49755	267.87875	25.66575	1263.94727	-273.27673	-83.65363	659.66052	-477.17136	75.59739	659.10608	-493.42276	19.86172	496.53970	447.22720	170.56799	487.20242	429.51373	
